# File created by Blade
# Date/Time:  Thu Jan 22 16:21:39 2015
# Frame Rate: 120.000 fps
#------------------------------------------------------
:FULLY-SPECIFIED
:DEGREES
2685
root 8.935846 37.123777 3.946872 -2.542024 -6.123891 2.919868
RightUpLeg 10.525084 -9.342847 -8.962018
RightLeg -6.212874 -0.000000 0.000000
RightFoot -9.248007 -14.409531 18.832731
RightToeBase 13.788324 -0.000000 -0.000000
LeftUpLeg 10.136714 7.933654 2.450783
LeftLeg -3.229374 -0.000000 0.000000
LeftFoot -7.721012 11.357089 -19.633740
LeftToeBase 8.649253 -0.000000 -0.000000
Spine 6.827742 -2.393320 -4.390855
RightShoulder -4.930610 -11.028577 -27.648968
RightArm 8.372074 28.812920 28.264864
RightForeArm 10.556410 -0.000000 16.148980
RightHand 3.085303 -0.000000 0.827461
RightHandThumb1 -24.326973 -0.000000 -32.862282
LeftShoulder -27.736211 32.268753 14.123079
LeftArm 42.665097 -52.361381 -52.816640
LeftForeArm 36.841462 0.000000 3.809294
LeftHand -18.990081 -0.000000 0.360311
LeftHandThumb1 -26.253704 0.000000 33.147579
Head -0.368976 11.980075 3.169559
2686
root 8.918907 37.120970 3.963349 -2.537251 -6.105619 2.920623
RightUpLeg 10.586207 -9.295619 -8.934292
RightLeg -6.278358 -0.000000 0.000000
RightFoot -9.270564 -14.472207 18.829213
RightToeBase 13.780335 -0.000000 -0.000000
LeftUpLeg 10.192244 8.032099 2.489449
LeftLeg -3.305512 -0.000000 0.000000
LeftFoot -7.661382 11.282904 -19.632722
LeftToeBase 8.634720 -0.000000 -0.000000
Spine 6.758196 -2.402569 -4.373487
RightShoulder -4.965407 -11.021848 -27.641438
RightArm 8.362128 28.792073 28.240745
RightForeArm 10.528861 -0.000000 16.134257
RightHand 3.112349 -0.000000 0.956550
RightHandThumb1 -24.326973 -0.000000 -32.862282
LeftShoulder -27.738048 32.270810 14.123790
LeftArm 42.600972 -52.340310 -52.738922
LeftForeArm 36.822050 0.000000 3.852005
LeftHand -18.961467 -0.000000 0.280227
LeftHandThumb1 -26.253704 0.000000 33.147579
Head -0.279219 11.981116 3.211882
2687
root 8.903401 37.118605 3.979220 -2.530572 -6.088008 2.920975
RightUpLeg 10.642528 -9.257058 -8.908971
RightLeg -6.337690 -0.000000 0.000000
RightFoot -9.305640 -14.529101 18.829381
RightToeBase 13.806416 -0.000000 -0.000000
LeftUpLeg 10.245414 8.088035 2.518961
LeftLeg -3.377109 -0.000000 0.000000
LeftFoot -7.625337 11.256709 -19.629618
LeftToeBase 8.668763 -0.000000 -0.000000
Spine 6.684806 -2.435895 -4.355519
RightShoulder -4.989322 -11.018719 -27.623197
RightArm 8.373928 28.746664 28.202776
RightForeArm 10.520702 0.000000 16.120484
RightHand 3.102547 -0.000000 1.031792
RightHandThumb1 -24.326973 -0.000000 -32.862282
LeftShoulder -27.761848 32.204632 14.129534
LeftArm 42.451841 -52.264009 -52.555883
LeftForeArm 36.802752 0.000000 3.863476
LeftHand -18.893151 0.000000 0.168070
LeftHandThumb1 -26.253704 0.000000 33.147579
Head -0.175311 12.012642 3.248291
2688
root 8.889276 37.116125 3.994410 -2.522743 -6.051165 2.925753
RightUpLeg 10.702207 -9.225736 -8.888445
RightLeg -6.402720 -0.000000 0.000000
RightFoot -9.320682 -14.610237 18.809957
RightToeBase 13.781590 -0.000000 -0.000000
LeftUpLeg 10.283147 8.080646 2.535642
LeftLeg -3.432488 -0.000000 0.000000
LeftFoot -7.600528 11.253460 -19.632682
LeftToeBase 8.646408 -0.000000 -0.000000
Spine 6.607904 -2.456256 -4.339968
RightShoulder -5.016504 -11.002442 -27.620825
RightArm 8.344122 28.741766 28.191987
RightForeArm 10.439955 -0.000000 16.124144
RightHand 3.083891 -0.000000 1.125066
RightHandThumb1 -24.326973 -0.000000 -32.862282
LeftShoulder -27.775648 32.169255 14.124859
LeftArm 42.391730 -52.201591 -52.424055
LeftForeArm 36.737356 0.000000 3.845388
LeftHand -18.879576 -0.000000 0.107258
LeftHandThumb1 -26.253704 0.000000 33.147579
Head -0.070020 11.977491 3.277621
2689
root 8.876112 37.113729 4.008139 -2.490484 -6.002432 2.927451
RightUpLeg 10.724671 -9.232012 -8.864329
RightLeg -6.442016 -0.000000 0.000000
RightFoot -9.347370 -14.679265 18.757137
RightToeBase 13.757311 -0.000000 -0.000000
LeftUpLeg 10.286155 8.048012 2.541732
LeftLeg -3.470759 -0.000000 0.000000
LeftFoot -7.590348 11.286387 -19.629770
LeftToeBase 8.592613 -0.000000 -0.000000
Spine 6.503864 -2.493963 -4.326714
RightShoulder -5.035656 -10.954023 -27.611660
RightArm 8.302758 28.726374 28.173278
RightForeArm 10.360417 -0.000000 16.101184
RightHand 3.060516 -0.000000 1.205167
RightHandThumb1 -24.326973 -0.000000 -32.862282
LeftShoulder -27.776677 32.174421 14.119021
LeftArm 42.359576 -52.212823 -52.373080
LeftForeArm 36.729190 -0.000000 3.874865
LeftHand -18.892138 -0.000000 0.123643
LeftHandThumb1 -26.253704 0.000000 33.147579
Head 0.053625 11.971266 3.367960
2690
root 8.864730 37.111366 4.020341 -2.461073 -5.974037 2.929425
RightUpLeg 10.742095 -9.198139 -8.837370
RightLeg -6.483288 -0.000000 0.000000
RightFoot -9.378443 -14.768159 18.735057
RightToeBase 13.761996 -0.000000 -0.000000
LeftUpLeg 10.292883 8.000459 2.549065
LeftLeg -3.510802 -0.000000 0.000000
LeftFoot -7.597087 11.302723 -19.652535
LeftToeBase 8.690341 -0.000000 -0.000000
Spine 6.403491 -2.514460 -4.306309
RightShoulder -5.081843 -11.005439 -27.581352
RightArm 8.379895 28.791048 28.190749
RightForeArm 10.328218 -0.000000 16.043567
RightHand 3.056172 -0.000000 1.188383
RightHandThumb1 -24.326973 -0.000000 -32.862282
LeftShoulder -27.810071 32.171039 14.095447
LeftArm 42.468923 -52.267439 -52.444934
LeftForeArm 36.796432 -0.000000 3.863086
LeftHand -18.917487 0.000000 0.096294
LeftHandThumb1 -26.253704 0.000000 33.147579
Head 0.166672 11.956765 3.410934
2691
root 8.852041 37.109256 4.031971 -2.438698 -5.942737 2.917578
RightUpLeg 10.762999 -9.180242 -8.796028
RightLeg -6.513669 -0.000000 0.000000
RightFoot -9.413221 -14.850751 18.701945
RightToeBase 13.743997 -0.000000 -0.000000
LeftUpLeg 10.297686 7.935934 2.569539
LeftLeg -3.541762 -0.000000 0.000000
LeftFoot -7.607040 11.356228 -19.655337
LeftToeBase 8.664793 -0.000000 -0.000000
Spine 6.310652 -2.543449 -4.269689
RightShoulder -5.092278 -10.992869 -27.581661
RightArm 8.387234 28.811207 28.201789
RightForeArm 10.332051 -0.000000 15.983168
RightHand 3.061561 -0.000000 1.183252
RightHandThumb1 -24.326973 -0.000000 -32.862282
LeftShoulder -27.810895 32.136332 14.082910
LeftArm 42.480598 -52.309855 -52.423137
LeftForeArm 36.830832 0.000000 3.838091
LeftHand -18.821630 -0.000000 0.047282
LeftHandThumb1 -26.253704 0.000000 33.147579
Head 0.267034 11.945857 3.404802
2692
root 8.839725 37.107628 4.042764 -2.404369 -5.916940 2.904378
RightUpLeg 10.767226 -9.173497 -8.753486
RightLeg -6.543191 -0.000000 0.000000
RightFoot -9.439310 -14.920323 18.676699
RightToeBase 13.809303 -0.000000 -0.000000
LeftUpLeg 10.289842 7.842815 2.582190
LeftLeg -3.564855 -0.000000 0.000000
LeftFoot -7.630354 11.441922 -19.668107
LeftToeBase 8.639232 -0.000000 -0.000000
Spine 6.205897 -2.555650 -4.236197
RightShoulder -5.134623 -11.034881 -27.541750
RightArm 8.439815 28.853127 28.195981
RightForeArm 10.347874 0.000000 15.920686
RightHand 3.060323 -0.000000 1.205870
RightHandThumb1 -24.326973 -0.000000 -32.862282
LeftShoulder -27.841924 32.153044 14.041182
LeftArm 42.635740 -52.380153 -52.506195
LeftForeArm 36.882850 -0.000000 3.785663
LeftHand -18.795311 0.000000 0.055386
LeftHandThumb1 -26.253704 0.000000 33.147579
Head 0.392471 11.934145 3.445349
2693
root 8.826988 37.106525 4.052070 -2.370444 -5.895784 2.885548
RightUpLeg 10.765378 -9.163652 -8.704478
RightLeg -6.563024 -0.000000 0.000000
RightFoot -9.450373 -14.989156 18.635330
RightToeBase 13.780715 -0.000000 -0.000000
LeftUpLeg 10.284016 7.728996 2.599070
LeftLeg -3.594278 -0.000000 0.000000
LeftFoot -7.652571 11.540691 -19.709029
LeftToeBase 8.618396 -0.000000 -0.000000
Spine 6.101498 -2.556196 -4.199943
RightShoulder -5.144047 -10.982574 -27.530573
RightArm 8.389341 28.851797 28.191930
RightForeArm 10.347298 0.000000 15.894828
RightHand 3.024630 -0.000000 1.270936
RightHandThumb1 -24.326973 -0.000000 -32.862282
LeftShoulder -27.820423 32.128356 14.040363
LeftArm 42.670628 -52.431047 -52.500505
LeftForeArm 36.923302 0.000000 3.747828
LeftHand -18.696967 -0.000000 0.098938
LeftHandThumb1 -26.253704 0.000000 33.147579
Head 0.510300 11.917831 3.474246
